# xmcd CD database file
#
# Track frame offsets:
#	150
#	16923
#	29921
#	44051
#	54130
#	67779
#	78875
#	89107
#	111004
#	125169
#	136289
#	154954
#
# Disc length: 2252 seconds
#
# Revision: 0
# Processed by: cddbd v1.5.1PL0 Copyright (c) Steve Scherf et al.
# Submitted via: CDex 1.51
#
DISCID=a308ca0c
DTITLE=Dwight Leroux - Wild Animal
DYEAR=2004
DGENRE=Country
TTITLE0=Wild Animal
TTITLE1=Gone (that"ll be me)
TTITLE2=Tu as brisé mon coeur
TTITLE3=I don't care
TTITLE4=Claudette
TTITLE5=Fou d'Amour
TTITLE6=Tiger by the tail
TTITLE7=Fast as you
TTITLE8=Guitars, Cadillac
TTITLE9=Playboy
TTITLE10=Baby don't go
TTITLE11=Le Camionneur
EXTD=YEAR: 2004
EXTT0=
EXTT1=
EXTT2=
EXTT3=
EXTT4=
EXTT5=
EXTT6=
EXTT7=
EXTT8=
EXTT9=
EXTT10=
EXTT11=
PLAYORDER=
